<mxfile host="app.diagrams.net" modified="2022-07-28T02:38:52.328Z" agent="5.0 (Macintosh; Intel Mac OS X 10_15_7) AppleWebKit/537.36 (KHTML, like Gecko) Chrome/101.0.0.0 Safari/537.36" etag="vxwALANkVwwYOYTw6M0i" version="20.1.3" type="github">
  <diagram id="P7GOOZWwP6zT7kpqFe42" name="第 1 页">
    <mxGraphModel dx="1426" dy="793" grid="1" gridSize="10" guides="1" tooltips="1" connect="1" arrows="1" fold="1" page="1" pageScale="1" pageWidth="827" pageHeight="1169" math="0" shadow="0">
      <root>
        <mxCell id="0" />
        <mxCell id="1" parent="0" />
        <mxCell id="mX_vDl9hfe2mviO7v2Fq-1" value="" style="whiteSpace=wrap;html=1;aspect=fixed;fillColor=#e1d5e7;strokeColor=#9673a6;" vertex="1" parent="1">
          <mxGeometry x="760" y="200" width="210" height="210" as="geometry" />
        </mxCell>
        <mxCell id="mX_vDl9hfe2mviO7v2Fq-2" value="day-2022-07-25" style="rounded=0;whiteSpace=wrap;html=1;align=left;fillColor=#fff2cc;strokeColor=#d6b656;" vertex="1" parent="1">
          <mxGeometry x="770" y="220" width="160" height="30" as="geometry" />
        </mxCell>
        <mxCell id="mX_vDl9hfe2mviO7v2Fq-3" value="day-2022-07-26" style="rounded=0;whiteSpace=wrap;html=1;align=left;fillColor=#fff2cc;strokeColor=#d6b656;" vertex="1" parent="1">
          <mxGeometry x="770" y="260" width="160" height="30" as="geometry" />
        </mxCell>
        <mxCell id="mX_vDl9hfe2mviO7v2Fq-4" value="&lt;span style=&quot;&quot;&gt;day-2022-07-27&lt;/span&gt;" style="rounded=0;whiteSpace=wrap;html=1;align=left;fillColor=#fff2cc;strokeColor=#d6b656;" vertex="1" parent="1">
          <mxGeometry x="770" y="300" width="160" height="30" as="geometry" />
        </mxCell>
        <mxCell id="mX_vDl9hfe2mviO7v2Fq-5" value="&lt;span style=&quot;&quot;&gt;day-2022-07-28&lt;/span&gt;" style="rounded=0;whiteSpace=wrap;html=1;align=left;fillColor=#fff2cc;strokeColor=#d6b656;" vertex="1" parent="1">
          <mxGeometry x="770" y="340" width="160" height="30" as="geometry" />
        </mxCell>
        <mxCell id="mX_vDl9hfe2mviO7v2Fq-6" value="..." style="text;html=1;align=center;verticalAlign=middle;resizable=0;points=[];autosize=1;strokeColor=none;fillColor=none;" vertex="1" parent="1">
          <mxGeometry x="792" y="375" width="30" height="30" as="geometry" />
        </mxCell>
        <mxCell id="mX_vDl9hfe2mviO7v2Fq-7" value="" style="rounded=0;whiteSpace=wrap;html=1;fillColor=#d5e8d4;gradientColor=#97d077;strokeColor=#82b366;" vertex="1" parent="1">
          <mxGeometry x="240" y="160" width="190" height="90" as="geometry" />
        </mxCell>
        <mxCell id="mX_vDl9hfe2mviO7v2Fq-9" value="事件数据event， lr&lt;br&gt;(waterfallRequest, bidRequest,bidwin,impression...)" style="rounded=0;whiteSpace=wrap;html=1;fillColor=#ffcc99;strokeColor=#36393d;" vertex="1" parent="1">
          <mxGeometry x="240" y="330" width="190" height="90" as="geometry" />
        </mxCell>
        <mxCell id="mX_vDl9hfe2mviO7v2Fq-10" value="project：ADC" style="text;html=1;align=center;verticalAlign=middle;resizable=0;points=[];autosize=1;strokeColor=none;fillColor=none;" vertex="1" parent="1">
          <mxGeometry x="240" y="130" width="100" height="30" as="geometry" />
        </mxCell>
        <mxCell id="mX_vDl9hfe2mviO7v2Fq-11" value="project：Dtask" style="text;html=1;align=center;verticalAlign=middle;resizable=0;points=[];autosize=1;strokeColor=none;fillColor=none;" vertex="1" parent="1">
          <mxGeometry x="240" y="300" width="100" height="30" as="geometry" />
        </mxCell>
        <mxCell id="mX_vDl9hfe2mviO7v2Fq-12" value="facebook" style="rounded=0;whiteSpace=wrap;html=1;fillColor=#fff2cc;strokeColor=#d6b656;gradientColor=#ffd966;" vertex="1" parent="1">
          <mxGeometry x="250" y="170" width="90" height="30" as="geometry" />
        </mxCell>
        <mxCell id="mX_vDl9hfe2mviO7v2Fq-13" value="admob" style="rounded=0;whiteSpace=wrap;html=1;fillColor=#f8cecc;gradientColor=#ea6b66;strokeColor=#b85450;" vertex="1" parent="1">
          <mxGeometry x="250" y="210" width="90" height="30" as="geometry" />
        </mxCell>
        <mxCell id="mX_vDl9hfe2mviO7v2Fq-14" value="apiRequest, apifill...." style="text;html=1;align=center;verticalAlign=middle;resizable=0;points=[];autosize=1;strokeColor=none;fillColor=none;" vertex="1" parent="1">
          <mxGeometry x="310" y="190" width="130" height="30" as="geometry" />
        </mxCell>
        <mxCell id="mX_vDl9hfe2mviO7v2Fq-15" value="广告源statics&lt;br&gt;&lt;br&gt;facebook&lt;br&gt;&lt;br&gt;admob&lt;br&gt;&lt;br&gt;..." style="rounded=0;whiteSpace=wrap;html=1;fillColor=#dae8fc;gradientColor=#7ea6e0;strokeColor=#6c8ebf;" vertex="1" parent="1">
          <mxGeometry x="100" y="130" width="60" height="160" as="geometry" />
        </mxCell>
        <mxCell id="mX_vDl9hfe2mviO7v2Fq-16" value="" style="endArrow=classic;html=1;rounded=0;exitX=0;exitY=0.75;exitDx=0;exitDy=0;entryX=1.05;entryY=0.45;entryDx=0;entryDy=0;entryPerimeter=0;" edge="1" parent="1" source="mX_vDl9hfe2mviO7v2Fq-12" target="mX_vDl9hfe2mviO7v2Fq-15">
          <mxGeometry width="50" height="50" relative="1" as="geometry">
            <mxPoint x="230" y="50" as="sourcePoint" />
            <mxPoint x="280" as="targetPoint" />
          </mxGeometry>
        </mxCell>
        <mxCell id="mX_vDl9hfe2mviO7v2Fq-17" value="" style="endArrow=classic;html=1;rounded=0;entryX=1;entryY=0.5;entryDx=0;entryDy=0;exitX=0;exitY=0.5;exitDx=0;exitDy=0;" edge="1" parent="1" source="mX_vDl9hfe2mviO7v2Fq-13" target="mX_vDl9hfe2mviO7v2Fq-15">
          <mxGeometry width="50" height="50" relative="1" as="geometry">
            <mxPoint x="570" y="110" as="sourcePoint" />
            <mxPoint x="620" y="60" as="targetPoint" />
          </mxGeometry>
        </mxCell>
        <mxCell id="mX_vDl9hfe2mviO7v2Fq-18" value="聚合" style="rounded=0;whiteSpace=wrap;html=1;fillColor=#ffcccc;strokeColor=#36393d;" vertex="1" parent="1">
          <mxGeometry x="540" y="250" width="130" height="60" as="geometry" />
        </mxCell>
        <mxCell id="mX_vDl9hfe2mviO7v2Fq-19" value="" style="endArrow=classic;html=1;rounded=0;exitX=1;exitY=0.5;exitDx=0;exitDy=0;entryX=0;entryY=0.5;entryDx=0;entryDy=0;" edge="1" parent="1" source="mX_vDl9hfe2mviO7v2Fq-7" target="mX_vDl9hfe2mviO7v2Fq-18">
          <mxGeometry width="50" height="50" relative="1" as="geometry">
            <mxPoint x="560" y="90" as="sourcePoint" />
            <mxPoint x="610" y="40" as="targetPoint" />
          </mxGeometry>
        </mxCell>
        <mxCell id="mX_vDl9hfe2mviO7v2Fq-20" value="" style="endArrow=classic;html=1;rounded=0;exitX=1;exitY=0.5;exitDx=0;exitDy=0;" edge="1" parent="1" source="mX_vDl9hfe2mviO7v2Fq-9">
          <mxGeometry width="50" height="50" relative="1" as="geometry">
            <mxPoint x="580" y="150" as="sourcePoint" />
            <mxPoint x="540" y="280" as="targetPoint" />
          </mxGeometry>
        </mxCell>
        <mxCell id="mX_vDl9hfe2mviO7v2Fq-21" value="mysql" style="text;html=1;align=center;verticalAlign=middle;resizable=0;points=[];autosize=1;strokeColor=none;fillColor=none;" vertex="1" parent="1">
          <mxGeometry x="835" y="405" width="50" height="30" as="geometry" />
        </mxCell>
        <mxCell id="mX_vDl9hfe2mviO7v2Fq-22" value="" style="endArrow=classic;html=1;rounded=0;exitX=1;exitY=0.5;exitDx=0;exitDy=0;entryX=-0.019;entryY=0.381;entryDx=0;entryDy=0;entryPerimeter=0;" edge="1" parent="1" source="mX_vDl9hfe2mviO7v2Fq-18" target="mX_vDl9hfe2mviO7v2Fq-1">
          <mxGeometry width="50" height="50" relative="1" as="geometry">
            <mxPoint x="690" y="520" as="sourcePoint" />
            <mxPoint x="740" y="470" as="targetPoint" />
          </mxGeometry>
        </mxCell>
      </root>
    </mxGraphModel>
  </diagram>
</mxfile>
